<svg width="924" height="1048" viewBox="0 0 924 1048" fill="none" xmlns="http://www.w3.org/2000/svg">
<path fill-rule="evenodd" clip-rule="evenodd" d="M6.10364 30.5765C0 42.5556 0 58.2371 0 89.6V958.4C0 989.763 0 1005.44 6.10364 1017.42C11.4725 1027.96 20.0395 1036.53 30.5765 1041.9C42.5556 1048 58.2371 1048 89.6 1048H583H645.4H693.037C720.014 1048 743.157 1028.77 748.092 1002.24L922.252 66.244C928.661 31.8029 902.229 0 867.197 0H689.656L689.493 1.6009C679.126 3.97259e-08 665.476 0 645.4 0H89.6C58.2371 0 42.5556 0 30.5765 6.10364C20.0395 11.4725 11.4725 20.0395 6.10364 30.5765Z" fill="#E5F7FF"/>
</svg>
